<?xml version="1.0" encoding="utf-8"?>
<!-- Generator: Adobe Illustrator 16.0.0, SVG Export Plug-In . SVG Version: 6.00 Build 0)  -->
<!DOCTYPE svg PUBLIC "-//W3C//DTD SVG 1.1//EN" "http://www.w3.org/Graphics/SVG/1.1/DTD/svg11.dtd">
<svg version="1.1" id="Layer_1" xmlns="http://www.w3.org/2000/svg" xmlns:xlink="http://www.w3.org/1999/xlink" x="0px" y="0px"
	 width="378.695px" height="378.879px" viewBox="0 0 378.695 378.879" enable-background="new 0 0 378.695 378.879"
	 xml:space="preserve">
<g>
	<path fill="#BABABE" d="M186.32,6.239C83.583,6.239,0,89.822,0,192.559c0,102.738,83.583,186.32,186.32,186.32
		c78.622,0,149.184-49.82,175.585-123.973l3.328-9.348h-57.591l-1.904,3.975c-21.935,45.771-68.809,75.346-119.418,75.346
		c-62.49,0-116.776-44.646-129.493-105.107H345.32v-0.213h25.475l0.692-6.227c0.766-6.883,1.153-13.871,1.153-20.773
		C372.641,89.822,289.058,6.239,186.32,6.239z M186.32,60.239c62.491,0,116.776,44.646,129.493,105.106H56.828
		C69.545,104.885,123.83,60.239,186.32,60.239z"/>
	<g>
		<path fill="#A7A9AC" d="M378.521,17.425l-15.645,11.023c-13.016-8.612-25.737-12.92-38.166-12.92
			c-7.904,0-14.672,1.778-20.306,5.334c-5.636,3.556-8.452,7.705-8.452,12.446c0,4.189,2.322,8.179,6.967,11.972
			c4.645,3.873,14.4,8.416,29.266,13.631c18.116,6.401,30.425,12.565,36.931,18.492c6.385,6.006,9.579,12.763,9.579,20.27
			c0,10.59-5.457,19.558-16.367,26.906c-10.91,7.35-24.548,11.023-40.909,11.023c-10.913,0-21.329-1.62-31.251-4.859
			c-9.925-3.239-18.135-7.705-24.635-13.395l15.297-11.854c12.429,9.563,25.612,14.344,39.552,14.344
			c9.756,0,18.059-2.135,24.914-6.401c6.853-4.268,10.28-9.284,10.28-15.054c0-4.742-2.266-8.969-6.793-12.684
			c-4.53-3.633-14.751-8.217-30.659-13.75c-17.073-6.004-28.687-11.931-34.842-17.78c-6.154-5.847-9.231-12.524-9.231-20.032
			c0-9.797,4.902-17.938,14.713-24.418C298.571,3.241,310.962,0,325.938,0C343.349,0,360.878,5.808,378.521,17.425z"/>
	</g>
	<g>
		<path fill="#BABABE" d="M374.849,20.423l-14.997,10.744c-12.478-8.394-24.673-12.592-36.588-12.592
			c-7.577,0-14.065,1.733-19.466,5.199c-5.402,3.465-8.103,7.509-8.103,12.13c0,4.083,2.226,7.971,6.679,11.668
			c4.452,3.774,13.805,8.203,28.056,13.285c17.366,6.238,29.166,12.246,35.403,18.022c6.12,5.854,9.183,12.439,9.183,19.754
			c0,10.322-5.231,19.062-15.69,26.225s-23.532,10.744-39.218,10.744c-10.461,0-20.446-1.579-29.958-4.736
			c-9.515-3.157-17.385-7.509-23.616-13.055l14.664-11.553c11.915,9.32,24.554,13.979,37.916,13.979
			c9.353,0,17.313-2.08,23.884-6.238c6.569-4.159,9.855-9.049,9.855-14.672c0-4.621-2.172-8.74-6.512-12.361
			c-4.343-3.542-14.142-8.009-29.392-13.401c-16.367-5.852-27.5-11.628-33.401-17.329c-5.899-5.699-8.85-12.206-8.85-19.524
			c0-9.549,4.7-17.482,14.104-23.798c9.402-6.314,21.28-9.473,35.638-9.473C341.131,3.441,357.936,9.102,374.849,20.423z"/>
	</g>
</g>
</svg>
