<?xml version="1.0" encoding="utf-8"?>
<!-- Generator: Adobe Illustrator 16.0.0, SVG Export Plug-In . SVG Version: 6.00 Build 0)  -->
<!DOCTYPE svg PUBLIC "-//W3C//DTD SVG 1.1//EN" "http://www.w3.org/Graphics/SVG/1.1/DTD/svg11.dtd">
<svg version="1.1" id="Layer_1" xmlns="http://www.w3.org/2000/svg" xmlns:xlink="http://www.w3.org/1999/xlink" x="0px" y="0px"
	 width="96.559px" height="74.809px" viewBox="0 0 96.559 74.809" enable-background="new 0 0 96.559 74.809" xml:space="preserve">
<path d="M87.749,0H8.811C3.952,0,0,3.995,0,8.905v57c0,4.91,3.952,8.904,8.811,8.904h78.938c4.859,0,8.811-3.994,8.811-8.904v-57
	C96.559,3.995,92.608,0,87.749,0z M84.75,63H70.128c0.006-0.087,0.026-0.169,0.026-0.257V51.067c0-2.092-1.734-3.787-3.875-3.787
	H31.405c-2.14,0-3.875,1.695-3.875,3.787v11.676c0,0.088,0.021,0.17,0.026,0.257H11.81V11.81H84.75V63z"/>
</svg>
